<svg width="18" height="18" viewBox="0 0 18 18" fill="none" xmlns="http://www.w3.org/2000/svg">
<path d="M15 12.7601C15.3978 12.7601 15.7794 12.6021 16.0607 12.3208C16.342 12.0395 16.5 11.658 16.5 11.2601V3.01013C16.5 2.61231 16.342 2.23078 16.0607 1.94947C15.7794 1.66817 15.3978 1.51013 15 1.51013H7.095C7.3575 1.96763 7.5 2.48513 7.5 3.01013H15V11.2601H8.25V12.7601M11.25 5.26013V6.76013H6.75V16.5101H5.25V12.0101H3.75V16.5101H2.25V10.5101H1.125V6.76013C1.125 6.36231 1.28304 5.98078 1.56434 5.69947C1.84564 5.41817 2.22718 5.26013 2.625 5.26013H11.25ZM6 3.01013C6 3.40796 5.84196 3.78949 5.56066 4.07079C5.27936 4.3521 4.89782 4.51013 4.5 4.51013C4.10218 4.51013 3.72064 4.3521 3.43934 4.07079C3.15804 3.78949 3 3.40796 3 3.01013C3 2.61231 3.15804 2.23078 3.43934 1.94947C3.72064 1.66817 4.10218 1.51013 4.5 1.51013C4.89782 1.51013 5.27936 1.66817 5.56066 1.94947C5.84196 2.23078 6 2.61231 6 3.01013Z" fill="white"/>
</svg>
