<svg width="16" height="16" viewBox="0 0 16 16" fill="none" xmlns="http://www.w3.org/2000/svg">
<path d="M6.6665 8C6.6665 8.35362 6.80698 8.69276 7.05703 8.94281C7.30708 9.19286 7.64622 9.33333 7.99984 9.33333C8.35346 9.33333 8.6926 9.19286 8.94265 8.94281C9.19269 8.69276 9.33317 8.35362 9.33317 8C9.33317 7.64638 9.19269 7.30724 8.94265 7.05719C8.6926 6.80714 8.35346 6.66667 7.99984 6.66667C7.64622 6.66667 7.30708 6.80714 7.05703 7.05719C6.80698 7.30724 6.6665 7.64638 6.6665 8Z" stroke="black" stroke-linecap="round" stroke-linejoin="round"/>
<path d="M14 8C12.4 10.6667 10.4 12 8 12C5.6 12 3.6 10.6667 2 8C3.6 5.33333 5.6 4 8 4C10.4 4 12.4 5.33333 14 8Z" stroke="black" stroke-linecap="round" stroke-linejoin="round"/>
</svg>
